<?xml version="1.0" standalone="no"?>
<!DOCTYPE svg PUBLIC "-//W3C//DTD SVG 20010904//EN"
 "http://www.w3.org/TR/2001/REC-SVG-20010904/DTD/svg10.dtd">
<svg version="1.0" xmlns="http://www.w3.org/2000/svg"
 width=100% height='60' viewBox="0 0 1200 1200"
 preserveAspectRatio="xMidYMid meet">

<g transform="translate(0.000000,1200.000000) scale(0.100000,-0.100000)"
fill="#FFFFFF" stroke="none">
<path d="M0 6000 l0 -6000 6000 0 6000 0 0 6000 0 6000 -6000 0 -6000 0 0
-6000z m10800 -2 l0 -4803 -1910 1910 -1910 1910 0 -633 0 -632 -40 0 -40 0 0
673 0 672 -110 110 -110 110 0 -783 0 -782 -40 0 -40 0 0 823 0 822 -110 110
-110 110 0 -933 0 -932 -40 0 -40 0 0 973 0 972 -110 110 -110 110 0 -1083 0
-1082 -40 0 -40 0 0 1123 0 1122 -110 110 -110 110 0 -1233 0 -1232 -40 0 -40
0 0 1273 0 1272 -110 110 -110 110 0 -1383 0 -1382 -40 0 -40 0 0 1423 0 1422
-110 110 -110 110 0 -1533 0 -1532 -40 0 -40 0 0 1573 0 1572 -110 110 -110
110 0 -1683 0 -1682 -40 0 -40 0 0 1723 0 1722 -110 110 -110 110 0 -1833 0
-1832 -40 0 -40 0 0 1873 0 1872 -110 110 -110 110 0 -1983 0 -1982 -40 0 -40
0 0 2023 0 2022 -110 110 -110 110 0 -2133 0 -2132 -40 0 -40 0 0 2173 0 2172
-110 110 -110 110 0 -2283 0 -2282 -40 0 -40 0 0 2323 0 2322 -110 110 -110
110 0 -2433 0 -2432 -40 0 -40 0 0 2473 0 2472 -110 110 -110 110 0 -2583 0
-2582 -40 0 -40 0 0 2623 0 2622 -110 110 -110 110 0 -2733 0 -2732 -40 0 -40
0 0 2773 0 2772 -110 110 -110 110 0 -2883 0 -2882 -40 0 -40 0 0 2923 0 2922
-110 110 -110 110 0 -3033 0 -3032 -40 0 -40 0 0 3073 0 3072 -110 110 -110
110 0 -3183 0 -3182 -40 0 -40 0 0 3223 0 3222 -110 110 -110 110 0 -3333 0
-3332 -40 0 -40 0 0 3373 0 3372 -110 110 -110 110 0 -3483 0 -3482 -40 0 -40
0 0 3525 0 3525 4800 0 4800 0 0 -4802z m-7652 -2720 c8 -8 12 -53 12 -136 l0
-124 34 30 c68 60 156 66 233 16 69 -45 103 -114 103 -209 0 -96 -34 -163
-107 -214 -32 -21 -49 -26 -105 -26 -59 0 -71 4 -112 32 l-46 33 0 -25 c0 -34
-36 -53 -58 -31 -15 14 -17 54 -17 322 0 238 3 310 13 325 15 22 33 24 50 7z
m-1448 -57 c0 -10 -45 -81 -100 -157 l-100 -139 0 -133 c0 -137 -8 -172 -38
-172 -37 0 -42 20 -42 166 l0 141 -101 136 c-107 145 -119 179 -69 185 23 3
37 -13 115 -122 50 -69 92 -125 95 -125 3 -1 43 54 90 120 47 66 92 124 100
129 20 11 50 -6 50 -29z m674 23 c14 -5 16 -36 16 -243 0 -208 -3 -241 -19
-276 -47 -102 -166 -143 -269 -94 -53 26 -101 92 -85 117 18 29 41 25 76 -13
57 -62 141 -64 191 -4 l26 31 0 224 c0 259 5 281 64 258z m449 -160 c185 -63
212 -334 43 -439 -43 -26 -59 -30 -121 -30 -62 0 -78 4 -121 30 -170 106 -143
374 45 441 49 18 98 17 154 -2z m1030 5 c55 -15 102 -59 93 -87 -9 -28 -27
-28 -72 3 -61 42 -155 32 -173 -18 -14 -37 8 -65 66 -87 30 -11 58 -20 64 -20
18 0 84 -37 103 -59 10 -11 20 -39 23 -63 11 -106 -108 -174 -241 -137 -49 14
-122 79 -113 103 12 30 34 28 81 -7 51 -40 91 -52 139 -42 42 9 67 32 67 63 0
40 -26 60 -116 87 -124 38 -171 97 -144 180 24 73 125 112 223 84z m-2575
-1401 l2 -488 -40 0 -40 0 0 491 0 490 38 -3 37 -3 3 -487z m300 0 l2 -488
-40 0 -40 0 0 491 0 490 38 -3 37 -3 3 -487z m300 0 l2 -488 -40 0 -40 0 0
491 0 490 38 -3 37 -3 3 -487z m300 0 l2 -488 -40 0 -40 0 0 491 0 490 38 -3
37 -3 3 -487z m300 0 l2 -488 -40 0 -40 0 0 491 0 490 38 -3 37 -3 3 -487z
m300 0 l2 -488 -40 0 -40 0 0 491 0 490 38 -3 37 -3 3 -487z m300 0 l2 -488
-40 0 -40 0 0 491 0 490 38 -3 37 -3 3 -487z m300 0 l2 -488 -40 0 -40 0 0
491 0 490 38 -3 37 -3 3 -487z m300 0 l2 -488 -40 0 -40 0 0 491 0 490 38 -3
37 -3 3 -487z m300 0 l2 -488 -40 0 -40 0 0 491 0 490 38 -3 37 -3 3 -487z
m300 0 l2 -488 -40 0 -40 0 0 491 0 490 38 -3 37 -3 3 -487z m300 0 l2 -488
-40 0 -40 0 0 491 0 490 38 -3 37 -3 3 -487z m300 0 l2 -488 -40 0 -40 0 0
491 0 490 38 -3 37 -3 3 -487z m300 0 l2 -488 -40 0 -40 0 0 491 0 490 38 -3
37 -3 3 -487z m300 0 l2 -488 -40 0 -40 0 0 491 0 490 38 -3 37 -3 3 -487z
m300 0 l2 -488 -40 0 -40 0 0 491 0 490 38 -3 37 -3 3 -487z m300 0 l2 -488
-40 0 -40 0 0 491 0 490 38 -3 37 -3 3 -487z m300 0 l2 -488 -40 0 -40 0 0
491 0 490 38 -3 37 -3 3 -487z m300 0 l2 -488 -40 0 -40 0 0 491 0 490 38 -3
37 -3 3 -487z m300 0 l2 -488 -40 0 -40 0 0 491 0 490 38 -3 37 -3 3 -487z"/>
<path d="M6050 6055 c2566 -2566 4666 -4665 4667 -4665 2 0 3 2099 3 4665 l0
4665 -4667 0 -4668 0 4665 -4665z"/>
<path d="M3240 3012 c-77 -42 -104 -161 -57 -252 39 -77 130 -103 198 -57 42
28 79 98 79 152 0 49 -35 122 -71 148 -39 28 -106 32 -149 9z"/>
<path d="M2690 3019 c-63 -26 -101 -87 -101 -165 0 -98 68 -174 156 -174 145
0 214 204 103 307 -43 40 -105 53 -158 32z"/>
</g>
</svg>
