<?xml version="1.0" standalone="no"?>
<!DOCTYPE svg PUBLIC "-//W3C//DTD SVG 20010904//EN"
 "http://www.w3.org/TR/2001/REC-SVG-20010904/DTD/svg10.dtd">
<svg version="1.0" xmlns="http://www.w3.org/2000/svg"
 width="1536.000000pt" height="768.000000pt" viewBox="0 0 1536.000000 768.000000"
 preserveAspectRatio="xMidYMid meet">

<g transform="translate(0.000000,768.000000) scale(0.100000,-0.100000)"
fill="#000000" stroke="none">
<path d="M0 3840 l0 -2600 7680 0 7680 0 0 2600 0 2600 -7680 0 -7680 0 0
-2600z m9760 -2 l0 -2083 -830 830 -830 830 0 -278 c0 -240 -2 -277 -15 -277
-13 0 -15 39 -15 293 l0 293 -50 49 -50 49 0 -342 c0 -297 -2 -342 -15 -342
-13 0 -15 46 -15 358 l0 358 -50 49 -50 49 0 -407 c0 -355 -2 -407 -15 -407
-13 0 -15 54 -15 423 l0 423 -50 49 -50 49 0 -472 c0 -413 -2 -472 -15 -472
-13 0 -15 61 -15 488 l0 488 -50 49 -50 49 0 -537 c0 -471 -2 -537 -15 -537
-13 0 -15 68 -15 553 l0 553 -50 49 -50 49 0 -602 c0 -528 -2 -602 -15 -602
-13 0 -15 75 -15 618 l0 618 -50 49 -50 49 0 -667 c0 -586 -2 -667 -15 -667
-13 0 -15 83 -15 683 l0 683 -50 49 -50 49 0 -732 c0 -644 -2 -732 -15 -732
-13 0 -15 90 -15 748 l0 748 -50 49 -50 49 0 -797 c0 -702 -2 -797 -15 -797
-13 0 -15 97 -15 813 l0 813 -50 49 -50 49 0 -862 c0 -760 -2 -862 -15 -862
-13 0 -15 104 -15 878 l0 878 -50 49 -50 49 0 -927 c0 -817 -2 -927 -15 -927
-13 0 -15 111 -15 943 l0 943 -50 49 -50 49 0 -992 c0 -875 -2 -992 -15 -992
-13 0 -15 119 -15 1008 l0 1008 -50 49 -50 49 0 -1057 c0 -933 -2 -1057 -15
-1057 -13 0 -15 126 -15 1073 l0 1073 -50 49 -50 49 0 -1122 c0 -991 -2 -1122
-15 -1122 -13 0 -15 133 -15 1138 l0 1138 -50 49 -50 49 0 -1187 c0 -1048 -2
-1187 -15 -1187 -13 0 -15 140 -15 1203 l0 1203 -50 49 -50 49 0 -1252 c0
-1106 -2 -1252 -15 -1252 -13 0 -15 148 -15 1268 l0 1268 -50 49 -50 49 0
-1317 c0 -1164 -2 -1317 -15 -1317 -13 0 -15 155 -15 1333 l0 1333 -50 49 -50
49 0 -1382 c0 -1222 -2 -1382 -15 -1382 -13 0 -15 162 -15 1398 l0 1398 -50
49 -50 49 0 -1447 c0 -1280 -2 -1447 -15 -1447 -13 0 -15 169 -15 1464 l0
1464 -47 48 -48 47 -3 -1511 c-2 -1335 -4 -1512 -17 -1512 -13 0 -15 178 -15
1530 l0 1530 2080 0 2080 0 0 -2082z m-3310 -1223 l0 -56 31 17 c93 48 174
-81 103 -165 -28 -33 -75 -42 -115 -21 -13 7 -19 7 -19 0 0 -5 -7 -10 -15 -10
-13 0 -15 23 -15 145 0 122 2 145 15 145 12 0 15 -13 15 -55z m-754 -43 l20
-25 37 52 c20 28 44 51 52 51 22 0 20 -6 -29 -75 -40 -55 -45 -69 -48 -125 -2
-40 -8 -65 -15 -68 -10 -3 -13 14 -13 60 0 61 -3 68 -46 126 -32 43 -44 68
-39 80 6 14 11 12 33 -17 15 -19 36 -46 48 -59z m424 -23 c0 -132 -19 -168
-89 -169 -33 0 -81 31 -81 52 0 13 27 9 40 -7 15 -18 61 -20 78 -3 8 8 12 48
12 113 0 103 3 115 27 115 10 0 13 -23 13 -101z m223 1 c61 -67 17 -170 -73
-170 -106 0 -141 147 -46 195 42 21 85 12 119 -25z m422 28 c14 -6 25 -17 25
-25 0 -16 -22 -17 -37 -2 -18 18 -58 7 -61 -18 -3 -17 5 -24 35 -33 70 -23 92
-62 56 -102 -23 -26 -96 -25 -123 2 -32 32 -14 44 27 19 29 -18 39 -20 59 -10
36 16 27 41 -20 58 -45 15 -76 40 -76 60 0 21 46 63 69 63 11 0 32 -5 46 -12z
m-1135 -608 c0 -180 -2 -210 -15 -210 -13 0 -15 30 -15 210 0 180 2 210 15
210 13 0 15 -30 15 -210z m130 0 c0 -180 -2 -210 -15 -210 -13 0 -15 30 -15
210 0 180 2 210 15 210 13 0 15 -30 15 -210z m130 0 c0 -180 -2 -210 -15 -210
-13 0 -15 30 -15 210 0 180 2 210 15 210 13 0 15 -30 15 -210z m130 0 c0 -180
-2 -210 -15 -210 -13 0 -15 30 -15 210 0 180 2 210 15 210 13 0 15 -30 15
-210z m130 0 c0 -180 -2 -210 -15 -210 -13 0 -15 30 -15 210 0 180 2 210 15
210 13 0 15 -30 15 -210z m130 0 c0 -180 -2 -210 -15 -210 -13 0 -15 30 -15
210 0 180 2 210 15 210 13 0 15 -30 15 -210z m130 0 c0 -180 -2 -210 -15 -210
-13 0 -15 30 -15 210 0 180 2 210 15 210 13 0 15 -30 15 -210z m130 0 c0 -180
-2 -210 -15 -210 -13 0 -15 30 -15 210 0 180 2 210 15 210 13 0 15 -30 15
-210z m130 0 c0 -180 -2 -210 -15 -210 -13 0 -15 30 -15 210 0 180 2 210 15
210 13 0 15 -30 15 -210z m130 0 c0 -180 -2 -210 -15 -210 -13 0 -15 30 -15
210 0 180 2 210 15 210 13 0 15 -30 15 -210z m130 0 c0 -180 -2 -210 -15 -210
-13 0 -15 30 -15 210 0 180 2 210 15 210 13 0 15 -30 15 -210z m130 0 c0 -180
-2 -210 -15 -210 -13 0 -15 30 -15 210 0 180 2 210 15 210 13 0 15 -30 15
-210z m130 0 c0 -180 -2 -210 -15 -210 -13 0 -15 30 -15 210 0 180 2 210 15
210 13 0 15 -30 15 -210z m130 0 c0 -180 -2 -210 -15 -210 -13 0 -15 30 -15
210 0 180 2 210 15 210 13 0 15 -30 15 -210z m130 0 c0 -180 -2 -210 -15 -210
-13 0 -15 30 -15 210 0 180 2 210 15 210 13 0 15 -30 15 -210z m130 0 c0 -180
-2 -210 -15 -210 -13 0 -15 30 -15 210 0 180 2 210 15 210 13 0 15 -30 15
-210z m130 0 c0 -180 -2 -210 -15 -210 -13 0 -15 30 -15 210 0 180 2 210 15
210 13 0 15 -30 15 -210z m130 0 c0 -180 -2 -210 -15 -210 -13 0 -15 30 -15
210 0 180 2 210 15 210 13 0 15 -30 15 -210z m130 0 c0 -180 -2 -210 -15 -210
-13 0 -15 30 -15 210 0 180 2 210 15 210 13 0 15 -30 15 -210z m130 0 c0 -180
-2 -210 -15 -210 -13 0 -15 30 -15 210 0 180 2 210 15 210 13 0 15 -30 15
-210z"/>
<path d="M7700 3865 c1114 -1114 2026 -2025 2027 -2025 2 0 3 911 3 2025 l0
2025 -2027 0 -2028 0 2025 -2025z"/>
<path d="M6475 2535 c-48 -47 -23 -125 40 -125 39 0 65 29 65 73 0 31 -39 77
-65 77 -9 0 -27 -11 -40 -25z"/>
<path d="M6225 2535 c-48 -47 -20 -125 44 -125 74 0 95 114 26 140 -37 14 -43
13 -70 -15z"/>
</g>
</svg>
